<svg width="318" height="60" viewBox="0 0 318 60" fill="none" xmlns="http://www.w3.org/2000/svg">
<path d="M192 0H55.2754V60H192V0Z" fill="#00684C"/>
<path d="M55.9498 0H0V60H55.9498V0Z" fill="#164D42"/>
<path fill-rule="evenodd" clip-rule="evenodd" d="M55.2754 24.9873L60.2918 30L55.2754 35.0126V24.9873Z" fill="#164D42"/>
<path fill-rule="evenodd" clip-rule="evenodd" d="M27.9993 14.7343C26.8117 14.7343 25.6146 14.7912 24.427 14.9052C23.2223 15.0129 22.0237 15.1809 20.8358 15.4083L20.0282 15.5697V7.90834C20.0264 7.76714 20.0532 7.62703 20.1071 7.49649C20.161 7.36594 20.2408 7.24768 20.3417 7.14884C20.4408 7.04757 20.559 6.9669 20.6895 6.9115C20.8199 6.8561 20.9601 6.82706 21.1018 6.82606H23.5055C23.6472 6.82706 23.7874 6.8561 23.9178 6.9115C24.0483 6.9669 24.1664 7.04757 24.2655 7.14884C24.4659 7.35099 24.5785 7.62383 24.5791 7.90834V10.4431H25.7096V7.90834C25.7078 7.76714 25.7346 7.62703 25.7885 7.49649C25.8424 7.36594 25.9222 7.24768 26.0232 7.14884C26.1223 7.04757 26.2404 6.9669 26.3709 6.9115C26.5013 6.8561 26.6415 6.82706 26.7832 6.82606H29.1869C29.3286 6.82706 29.4688 6.8561 29.5992 6.9115C29.7297 6.9669 29.8479 7.04757 29.947 7.14884C30.1473 7.35099 30.2599 7.62383 30.2605 7.90834V10.4431H31.3531V7.90834C31.353 7.76378 31.382 7.62068 31.4382 7.48748C31.4944 7.35428 31.5767 7.23368 31.6803 7.1328C31.7839 7.03192 31.9067 6.95281 32.0414 6.90012C32.1761 6.84744 32.32 6.82225 32.4647 6.82606H34.8683C35.0101 6.82706 35.1502 6.8561 35.2807 6.9115C35.4111 6.9669 35.5293 7.04757 35.6284 7.14884C35.8287 7.35099 35.9414 7.62383 35.9419 7.90834V15.5697L35.1249 15.4083C33.9465 15.1809 32.7574 15.0129 31.5621 14.9052C30.3745 14.7912 29.1869 14.7343 27.9993 14.7343ZM21.4553 8.25872C21.4235 8.29228 21.4058 8.33678 21.4058 8.38302L21.4628 13.9178C22.4129 13.7564 23.363 13.6235 24.313 13.5381C25.5481 13.4147 26.7832 13.3577 28.0183 13.3577C29.2525 13.356 30.486 13.4162 31.7141 13.5381C32.6642 13.6235 33.6142 13.7564 34.5643 13.9178V8.38302C34.5644 8.33678 34.5467 8.29228 34.5148 8.25872C34.483 8.22515 34.4395 8.20507 34.3933 8.20264H32.9397C32.8935 8.20507 32.85 8.22515 32.8181 8.25872C32.7863 8.29228 32.7686 8.33678 32.7687 8.38302V11.6678C32.7662 11.714 32.7462 11.7575 32.7126 11.7893C32.679 11.8211 32.6344 11.8388 32.5882 11.8387H29.0539C29.0085 11.8387 28.965 11.8207 28.933 11.7887C28.9009 11.7566 28.8829 11.7132 28.8829 11.6678V8.38302C28.8829 8.33678 28.8652 8.29228 28.8334 8.25872C28.8016 8.22515 28.7581 8.20507 28.7119 8.20264H27.2583C27.2121 8.20507 27.1685 8.22515 27.1367 8.25872C27.1049 8.29228 27.0872 8.33678 27.0872 8.38302V11.6678C27.0848 11.714 27.0647 11.7575 27.0311 11.7893C26.9975 11.8211 26.953 11.8388 26.9067 11.8387H23.382C23.3587 11.84 23.3355 11.8365 23.3136 11.8285C23.2917 11.8205 23.2718 11.8081 23.2549 11.7922C23.238 11.7762 23.2245 11.7569 23.2153 11.7355C23.2061 11.7141 23.2014 11.6911 23.2015 11.6678V8.38302C23.2015 8.33678 23.1838 8.29228 23.152 8.25872C23.1202 8.22515 23.0767 8.20507 23.0304 8.20264H21.5768C21.5306 8.20507 21.4871 8.22515 21.4553 8.25872ZM38.7272 24.1162C38.8544 24.1683 38.97 24.245 39.0675 24.3419V24.3513C39.1641 24.447 39.2407 24.5609 39.2929 24.6864C39.3451 24.8118 39.3718 24.9465 39.3715 25.0824V38.9241C39.4446 40.5071 39.0301 42.0744 38.1839 43.4146C37.6847 44.094 37.0557 44.6678 36.3333 45.1029C35.6109 45.538 34.8094 45.8257 33.9751 45.9495C32.7704 46.1734 31.5967 46.5399 30.4788 47.0412C29.7444 47.3143 29.0908 47.7682 28.5787 48.3608L28.1606 49.0159C28.1405 49.0452 28.1136 49.0692 28.0822 49.0857C28.0507 49.1023 28.0157 49.1109 27.9801 49.1108C27.946 49.1102 27.9126 49.1012 27.8828 49.0846C27.853 49.0681 27.8277 49.0445 27.8091 49.0159L27.3911 48.3608C26.8762 47.7712 26.2235 47.3179 25.4909 47.0412C24.373 46.5399 23.1993 46.1734 21.9947 45.9495C21.1603 45.8257 20.3588 45.538 19.6364 45.1029C18.914 44.6678 18.2851 44.094 17.7859 43.4146C16.933 42.0766 16.5118 40.5091 16.5793 38.9241V25.0824C16.5787 24.945 16.6053 24.8089 16.6575 24.6818C16.7096 24.5548 16.7864 24.4392 16.8833 24.3419C16.979 24.2453 17.0929 24.1687 17.2185 24.1166C17.3441 24.0644 17.4788 24.0377 17.6148 24.0381H38.3264C38.4639 24.0375 38.6001 24.0641 38.7272 24.1162ZM18.0527 25.4886C18.0155 25.5275 17.9948 25.5792 17.9949 25.633V34.4811C17.9972 34.5332 18.019 34.5826 18.0559 34.6195C18.0928 34.6564 18.1422 34.6781 18.1944 34.6805H19.5055V33.1045C19.5061 33.0738 19.5131 33.0435 19.5262 33.0157C19.5393 32.9879 19.5582 32.9632 19.5815 32.9431L20.5316 32.1836V30.5412C20.5321 30.5105 20.5392 30.4802 20.5523 30.4524C20.5654 30.4246 20.5842 30.3999 20.6076 30.3798L22.2322 28.7374V28.0349H21.6811C21.5804 28.0349 21.4837 27.9949 21.4124 27.9237C21.3412 27.8524 21.3011 27.7559 21.3011 27.6551C21.3011 27.5544 21.3412 27.4578 21.4124 27.3866C21.4837 27.3154 21.5804 27.2754 21.6811 27.2754H22.2322V26.6583C22.2235 26.6041 22.2267 26.5486 22.2416 26.4957C22.2565 26.4428 22.2827 26.3938 22.3183 26.352C22.354 26.3102 22.3983 26.2766 22.4483 26.2536C22.4982 26.2306 22.5525 26.2187 22.6075 26.2187C22.6624 26.2187 22.7168 26.2306 22.7667 26.2536C22.8166 26.2766 22.8609 26.3102 22.8966 26.352C22.9323 26.3938 22.9584 26.4428 22.9733 26.4957C22.9882 26.5486 22.9914 26.6041 22.9827 26.6583V27.2754H23.5338C23.6346 27.2754 23.7312 27.3154 23.8025 27.3866C23.8738 27.4578 23.9138 27.5544 23.9138 27.6551C23.9138 27.7559 23.8738 27.8524 23.8025 27.9237C23.7312 27.9949 23.6346 28.0349 23.5338 28.0349H22.9827V28.7374L24.6074 30.3798C24.632 30.3959 24.6531 30.4169 24.6694 30.4413C24.6857 30.4658 24.697 30.4933 24.7024 30.5222V32.2786L25.6525 32.9431C25.676 32.9766 25.6892 33.0162 25.6905 33.057V33.3703C25.733 33.3152 25.7807 33.2644 25.833 33.2184C26.1822 32.873 26.6089 32.6159 27.0776 32.4684C27.1185 32.4562 27.1545 32.4312 27.1802 32.397C27.2058 32.3628 27.2198 32.3213 27.2201 32.2786V25.633C27.2201 25.5792 27.1994 25.5275 27.1622 25.4886C27.1251 25.4497 27.0743 25.4266 27.0206 25.4241H18.1944C18.1406 25.4266 18.0899 25.4497 18.0527 25.4886ZM22.6075 31.4033C22.588 31.4033 22.5693 31.4108 22.5552 31.4241L20.2845 33.3798V34.6805H21.8047V33.3324C21.8046 33.3012 21.8163 33.2712 21.8374 33.2483C21.8586 33.2254 21.8876 33.2113 21.9187 33.2089H23.2963C23.3274 33.2113 23.3564 33.2254 23.3775 33.2483C23.3987 33.2712 23.4104 33.3012 23.4103 33.3324V34.614H24.9304V33.3229L22.6597 31.4241C22.6456 31.4108 22.6269 31.4033 22.6075 31.4033ZM21.2821 30.7406V31.5381L22.5457 30.5317C22.5636 30.5186 22.5853 30.5115 22.6075 30.5115C22.6297 30.5115 22.6513 30.5186 22.6692 30.5317L23.9328 31.6994V30.7501L22.6692 29.4305C22.6508 29.4239 22.6307 29.4239 22.6122 29.4305C22.6017 29.426 22.5904 29.4237 22.579 29.4237C22.5675 29.4237 22.5562 29.426 22.5457 29.4305L21.2821 30.7406ZM25.5103 43.0989C25.5564 43.0546 25.5835 42.9943 25.5859 42.9305V42.7216C25.5835 42.6578 25.5564 42.5974 25.5103 42.5532C25.4643 42.5089 25.4028 42.4842 25.3389 42.4843H24.9019C24.8389 42.4843 24.7785 42.5093 24.7339 42.5538C24.6894 42.5983 24.6644 42.6587 24.6644 42.7216V42.9305C24.6644 42.9934 24.6894 43.0538 24.7339 43.0983C24.7785 43.1428 24.8389 43.1678 24.9019 43.1678H25.3389C25.4028 43.1679 25.4643 43.1432 25.5103 43.0989ZM25.0349 39.5602V39.4273L25.0064 39.5412C25.0064 39.5412 25.0254 39.4558 24.9494 39.4558H23.6098H23.5623V39.6267C23.7238 39.6457 23.8473 39.7216 23.8473 39.807V41.1741L23.9803 41.2406V40.8513C23.9817 40.8114 23.9929 40.7723 24.0127 40.7376C24.0326 40.7029 24.0606 40.6735 24.0943 40.652C24.1304 40.6311 24.1714 40.6202 24.2131 40.6202C24.2548 40.6202 24.2957 40.6311 24.3319 40.652L24.7309 40.8419V39.7406C24.7309 39.6457 24.8639 39.5602 25.0349 39.5602ZM23.7523 43.0254V42.7216C23.7498 42.6578 23.7227 42.5974 23.6767 42.5532C23.6306 42.5089 23.5692 42.4842 23.5053 42.4843H23.0683C23.0053 42.4843 22.9448 42.5093 22.9003 42.5538C22.8558 42.5983 22.8307 42.6587 22.8307 42.7216V43.0254C22.8307 43.0883 22.8558 43.1487 22.9003 43.1932C22.9448 43.2377 23.0053 43.2627 23.0683 43.2627H23.5053C23.5692 43.2628 23.6306 43.2381 23.6767 43.1938C23.7227 43.1496 23.7498 43.0892 23.7523 43.0254ZM22.6835 40.7151C22.7252 40.7151 22.7661 40.7261 22.8022 40.7469V40.7184C22.8216 40.6054 22.8343 40.4912 22.8402 40.3767C22.8318 40.3261 22.8066 40.2799 22.7687 40.2455C22.7308 40.211 22.6823 40.1904 22.6312 40.1868H21.6811V40.9558L22.1467 41.1836L22.4507 41.3355V40.9463C22.4521 40.9063 22.4632 40.8673 22.4831 40.8326C22.503 40.7978 22.531 40.7684 22.5647 40.7469C22.6008 40.7261 22.6418 40.7151 22.6835 40.7151ZM21.8522 43.0254V42.7216C21.8497 42.6578 21.8226 42.5974 21.7765 42.5532C21.7305 42.5089 21.669 42.4842 21.6051 42.4843H21.1681C21.1051 42.4843 21.0447 42.5093 21.0002 42.5538C20.9556 42.5983 20.9306 42.6587 20.9306 42.7216V43.0254C20.9306 43.0883 20.9556 43.1487 21.0002 43.1932C21.0447 43.2377 21.1051 43.2627 21.1681 43.2627H21.6051C21.669 43.2628 21.7305 43.2381 21.7765 43.1938C21.8226 43.1496 21.8497 43.0892 21.8522 43.0254ZM27.1648 46.1398C27.1832 46.108 27.1925 46.0717 27.1916 46.0349L27.2391 38.4969C27.2394 38.4529 27.2257 38.41 27.2001 38.3742C27.1746 38.3384 27.1383 38.3115 27.0966 38.2976C26.6279 38.1501 26.2012 37.8929 25.852 37.5476C25.4941 37.1915 25.2326 36.7505 25.0919 36.2659C25.0779 36.2242 25.0511 36.188 25.0152 36.1624C24.9794 36.1368 24.9364 36.1232 24.8924 36.1235H18.2419C18.2157 36.1235 18.1897 36.1287 18.1655 36.1387C18.1413 36.1487 18.1193 36.1634 18.1008 36.1819C18.0823 36.2004 18.0676 36.2224 18.0576 36.2466C18.0475 36.2708 18.0424 36.2967 18.0424 36.3229V38.8957C17.9768 40.1915 18.3083 41.4765 18.9924 42.5792C19.103 42.7294 19.227 42.8692 19.363 42.9969V41.2881V40.8893V39.3513C19.3915 38.7627 19.496 37.5191 19.496 37.5191C19.5005 37.4923 19.5145 37.4679 19.5354 37.4505C19.5563 37.4331 19.5828 37.4238 19.61 37.4241H20.1895C20.2151 37.4259 20.2393 37.4363 20.2583 37.4535C20.2772 37.4707 20.2898 37.4938 20.294 37.5191L20.2958 37.5371L20.2987 37.5662L20.2987 37.5663C20.3223 37.7985 20.4271 38.8291 20.4271 39.3513V40.2343H20.8071V39.5317L20.9021 37.9748C20.9068 37.9462 20.9221 37.9206 20.9451 37.9029C20.968 37.8853 20.9968 37.877 21.0256 37.8798H21.4341C21.4597 37.8816 21.4839 37.892 21.5029 37.9092C21.5218 37.9264 21.5344 37.9495 21.5386 37.9748L21.6336 39.5887V40.0729H22.5837C22.6644 40.0753 22.7419 40.1047 22.8039 40.1563C22.8659 40.2079 22.9088 40.2788 22.9257 40.3577V40.8229L23.1443 40.9083V39.807C23.1443 39.7121 23.2678 39.6267 23.4293 39.6267V39.4463C23.4388 39.3229 23.5433 39.3229 23.6098 39.3229H24.2463C24.49 39.3074 24.7343 39.3074 24.9779 39.3229C25.0164 39.3316 25.0507 39.3534 25.0749 39.3846C25.0992 39.4157 25.1119 39.4543 25.1109 39.4938V39.6267C25.2629 39.6457 25.3769 39.7216 25.3769 39.807V41.2501L25.8615 41.4874C25.9022 41.5073 25.9363 41.5385 25.9599 41.5772C25.9835 41.6159 25.9955 41.6605 25.9945 41.7058V45.7311V45.7976H26.0895L26.669 46.0919L26.8875 46.2153C26.9175 46.2338 26.9521 46.2435 26.9873 46.2435C27.0225 46.2435 27.0571 46.2338 27.0871 46.2153C27.1194 46.1978 27.1463 46.1717 27.1648 46.1398ZM26.8545 37.0395C27.1754 37.2577 27.5541 37.3751 27.9421 37.3767L27.9801 37.3482C28.3004 37.348 28.6156 37.269 28.898 37.1181C29.1804 36.9671 29.4211 36.749 29.599 36.4828C29.7768 36.2167 29.8863 35.9109 29.9176 35.5925C29.9489 35.274 29.9012 34.9527 29.7787 34.6571C29.6561 34.3615 29.4625 34.1006 29.2149 33.8976C28.9674 33.6946 28.6736 33.5557 28.3595 33.4932C28.0454 33.4308 27.7208 33.4466 27.4143 33.5395C27.1079 33.6323 26.829 33.7992 26.6025 34.0254C26.3224 34.2937 26.1288 34.6395 26.0467 35.0185C25.9645 35.3975 25.9975 35.7923 26.1415 36.1524C26.2854 36.5125 26.5337 36.8214 26.8545 37.0395ZM37.0533 42.6077C37.7375 41.5049 38.0689 40.22 38.0034 38.9241L37.9179 36.3324C37.9179 36.3054 37.9125 36.2786 37.9018 36.2538C37.8912 36.229 37.8757 36.2066 37.8561 36.1879C37.8366 36.1693 37.8135 36.1548 37.7881 36.1454C37.7628 36.1359 37.7359 36.1317 37.7089 36.133H31.0584C31.0143 36.1327 30.9713 36.1463 30.9355 36.1719C30.8997 36.1975 30.8729 36.2337 30.8588 36.2754C30.7182 36.7573 30.4566 37.1952 30.0988 37.5476C29.7325 37.9087 29.2819 38.173 28.7877 38.3165C28.7451 38.3292 28.708 38.3557 28.6822 38.3918C28.6564 38.4279 28.6433 38.4716 28.6452 38.5159V46.0349C28.6442 46.0717 28.6535 46.108 28.672 46.1398C28.6904 46.1717 28.7173 46.1978 28.7497 46.2153C28.7815 46.2336 28.8175 46.2433 28.8542 46.2433C28.8909 46.2433 28.9269 46.2336 28.9587 46.2153L29.1297 46.1108C29.2136 46.0705 29.2954 46.0302 29.3758 45.9905L29.3765 45.9902L29.3781 45.9894L29.3785 45.9892L29.3786 45.9891L29.3786 45.9891L29.3787 45.9891L29.3788 45.989L29.3788 45.989C29.5434 45.9078 29.7024 45.8294 29.8613 45.7596V42.9115C29.8527 42.874 29.8527 42.835 29.8613 42.7976C29.8812 42.7619 29.9069 42.7299 29.9373 42.7026L30.0893 42.5697L31.1819 41.5444C31.1776 41.5192 31.1776 41.4936 31.1819 41.4684C31.1819 41.3839 31.2069 41.3013 31.2539 41.2311C31.3009 41.1608 31.3677 41.1061 31.4458 41.0737C31.5239 41.0414 31.6099 41.0329 31.6928 41.0494C31.7757 41.0659 31.8519 41.1066 31.9117 41.1664C31.9715 41.2261 32.0122 41.3022 32.0287 41.3851C32.0452 41.468 32.0368 41.5539 32.0044 41.6319C31.972 41.71 31.9172 41.7767 31.8469 41.8237C31.7766 41.8706 31.694 41.8957 31.6094 41.8957L30.4028 43.0634V45.5697L30.7258 45.4178V43.4146C30.7159 43.3645 30.7159 43.3129 30.7258 43.2627C30.7957 43.1661 30.8788 43.0798 30.9729 43.0064L32.512 41.4874L32.4075 40.7564C32.3086 40.7332 32.2151 40.6913 32.1319 40.633C31.9859 40.5254 31.8872 40.3655 31.8564 40.1868C31.829 39.6929 31.9846 39.2063 32.2935 38.8197C32.3076 38.8063 32.3263 38.7989 32.3457 38.7989C32.3651 38.7989 32.3838 38.8063 32.398 38.8197C32.8131 39.093 33.1086 39.5139 33.2245 39.9969C33.2485 40.1712 33.2042 40.348 33.101 40.4906C33.046 40.5683 32.9747 40.6331 32.892 40.6805L32.949 41.0792L33.8041 40.2438C33.6832 40.0406 33.6269 39.8055 33.6426 39.5697C33.6569 39.2629 33.7897 38.9737 34.0131 38.7627C34.6858 38.2507 35.528 38.0132 36.3693 38.0982C36.402 38.0982 36.4334 38.1112 36.4566 38.1343C36.4798 38.1575 36.4928 38.1889 36.4928 38.2216C36.4946 39.0695 36.1756 39.8868 35.5997 40.5096C35.374 40.713 35.0768 40.8188 34.7731 40.8039C34.6114 40.8011 34.4523 40.7622 34.3076 40.69L33.8231 41.1741L34.4691 41.3545C34.5267 41.2852 34.5939 41.2245 34.6686 41.1741C34.8215 41.0788 35.0048 41.0449 35.1817 41.0792C35.6577 41.2461 36.0541 41.5847 36.2933 42.0286C36.3066 42.0427 36.3141 42.0614 36.3141 42.0808C36.3141 42.1002 36.3066 42.1189 36.2933 42.133C35.8868 42.4173 35.3886 42.5392 34.8967 42.4748C34.725 42.4277 34.5763 42.3197 34.4786 42.171C34.4242 42.0741 34.3887 41.9678 34.3741 41.8577L33.424 41.6013L31.4099 43.5665V45.171C32.1683 44.9174 32.9427 44.7144 33.7281 44.5634C35.0517 44.3765 36.2473 43.6733 37.0533 42.6077ZM37.9389 34.6227C37.9778 34.5855 38.0009 34.5348 38.0034 34.4811V25.633C38.0037 25.603 37.9975 25.5733 37.9852 25.5459C37.973 25.5185 37.955 25.4941 37.9325 25.4742C37.9099 25.4544 37.8834 25.4397 37.8546 25.431C37.8259 25.4224 37.7956 25.42 37.7659 25.4241H28.8827C28.8557 25.4241 28.8289 25.4296 28.8041 25.4402C28.7792 25.4508 28.7568 25.4663 28.7382 25.4858C28.7195 25.5054 28.705 25.5285 28.6956 25.5538C28.6861 25.5791 28.6819 25.606 28.6832 25.633V32.326C28.6813 32.3704 28.6944 32.4141 28.7202 32.4502C28.746 32.4863 28.7831 32.5128 28.8257 32.5254C29.2296 32.6391 29.6051 32.8364 29.9278 33.1045L30.0323 33.2279V31.9653L29.8328 31.7279V29.8292C29.8338 29.754 29.8499 29.6797 29.8803 29.6108C29.9092 29.5432 29.9512 29.4819 30.0038 29.4305C30.056 29.3788 30.1172 29.3369 30.1843 29.307C30.2564 29.2927 30.3307 29.2927 30.4028 29.307H31.6189C31.6878 29.2927 31.759 29.2927 31.8279 29.307C31.8979 29.3368 31.9622 29.3786 32.0179 29.4305C32.0676 29.4843 32.1092 29.5451 32.1414 29.6108C32.1558 29.6829 32.1558 29.7571 32.1414 29.8292V31.7279L31.9419 31.9653V34.7279H32.569V33.1805L32.417 33.0001V31.5476C32.407 31.4878 32.407 31.4269 32.417 31.3672C32.4431 31.3139 32.4785 31.2657 32.5215 31.2248C32.6059 31.1433 32.7176 31.0959 32.835 31.0919H33.7851C33.8412 31.0778 33.9 31.0778 33.9561 31.0919C34.0119 31.1143 34.0634 31.1465 34.1081 31.1868C34.1452 31.2304 34.177 31.2782 34.2031 31.3292C34.2216 31.3843 34.2312 31.442 34.2316 31.5001V32.9526L34.0796 33.133V34.6615H34.7066V32.2786L34.5071 32.0412V30.1425C34.5093 29.9922 34.5707 29.8489 34.6781 29.7438C34.7279 29.6891 34.7897 29.6469 34.8587 29.6203C34.9276 29.59 35.0019 29.5739 35.0772 29.5729H36.2648C36.34 29.5739 36.4144 29.59 36.4833 29.6203C36.6193 29.6797 36.7279 29.7882 36.7873 29.9241C36.8176 29.993 36.8338 30.0673 36.8348 30.1425V32.0412L36.6353 32.2786V34.6805H37.7944C37.8482 34.6805 37.9 34.6598 37.9389 34.6227ZM42.4306 21.0285C42.3238 20.9204 42.1966 20.8345 42.0563 20.7758C41.9161 20.7172 41.7656 20.6869 41.6135 20.6868H39.3904V19.0349C39.3905 18.7179 39.2908 18.4091 39.1054 18.1519C38.9141 17.8909 38.6392 17.7033 38.3263 17.6203C34.9626 16.6908 31.489 16.2182 27.999 16.2152C24.4943 16.2215 21.0058 16.6907 17.6242 17.6108C17.3149 17.6984 17.0431 17.8853 16.8508 18.1427C16.6585 18.4001 16.5563 18.7136 16.5601 19.0349V20.6868H14.337C14.032 20.6892 13.74 20.8107 13.5234 21.0253C13.3068 21.24 13.1828 21.5307 13.1779 21.8355V39.9399C13.0916 41.9829 13.6319 44.0034 14.7265 45.7311C15.3703 46.6024 16.1802 47.3378 17.1096 47.895C18.039 48.4523 19.0696 48.8203 20.1419 48.9779C21.7426 49.2768 23.3021 49.7644 24.7878 50.4304C25.7862 50.8028 26.6772 51.4159 27.3815 52.2152L27.9705 53.1646L28.5691 52.2152C29.2668 51.4039 30.1546 50.7777 31.1533 50.3924C32.6423 49.7265 34.2049 49.2389 35.8086 48.9399C36.88 48.7836 37.9097 48.4161 38.8377 47.8588C39.7658 47.3014 40.5737 46.5652 41.2145 45.6931C42.3022 43.9769 42.8392 41.9695 42.7536 39.9399V21.8355C42.7569 21.5344 42.6408 21.2443 42.4306 21.0285ZM17.9758 19.0349C17.9748 19.019 17.9748 19.0032 17.9758 18.9874C21.2396 18.0989 24.6067 17.6456 27.9895 17.6393C31.3729 17.6375 34.741 18.0909 38.0033 18.9874C38.0049 19.0063 38.0049 19.0254 38.0033 19.0443V20.6962H18.0518L17.9758 19.0349ZM41.3475 39.9209C41.4331 41.6719 40.9823 43.4072 40.0554 44.8956C39.5155 45.6178 38.838 46.2261 38.0619 46.6856C37.2857 47.1451 36.4263 47.4466 35.5331 47.5728C33.8187 47.8967 32.148 48.4192 30.5547 49.1298C29.615 49.5473 28.7438 50.1042 27.9705 50.7817C27.2004 50.1 26.3285 49.5426 25.3863 49.1298C23.7964 48.419 22.1288 47.8964 20.4174 47.5728C19.5242 47.4466 18.6648 47.1451 17.8886 46.6856C17.1125 46.2261 16.435 45.6178 15.8951 44.8956C14.9682 43.4072 14.5175 41.6719 14.603 39.9209V22.1108H41.3475V39.9209ZM29.3772 35.6963H29.1682C29.1485 35.7017 29.1309 35.7126 29.1174 35.7277C29.1039 35.7429 29.0951 35.7617 29.0921 35.7818C29.0708 35.8404 29.0454 35.8975 29.0161 35.9527C29.0042 35.9711 28.9979 35.9925 28.9979 36.0144C28.9979 36.0363 29.0042 36.0577 29.0161 36.0761L29.0826 36.1805C29.0988 36.2007 29.1076 36.2258 29.1076 36.2517C29.1076 36.2776 29.0988 36.3027 29.0826 36.3229L28.9876 36.4179L28.8831 36.5128C28.8643 36.5282 28.8408 36.5367 28.8165 36.5367C28.7923 36.5367 28.7688 36.5282 28.75 36.5128L28.579 36.3799C28.5597 36.3706 28.5386 36.3658 28.5172 36.3658C28.4958 36.3658 28.4747 36.3706 28.4554 36.3799L28.2939 36.4463C28.2743 36.4517 28.2566 36.4626 28.2431 36.4777C28.2296 36.4929 28.2208 36.5117 28.2179 36.5318V36.7406C28.2118 36.7642 28.1984 36.7851 28.1796 36.8005C28.1608 36.8159 28.1376 36.8248 28.1133 36.8261H27.8282C27.804 36.8248 27.7807 36.8159 27.7619 36.8005C27.7431 36.7851 27.7297 36.7642 27.7237 36.7406V36.5318C27.7178 36.5104 27.707 36.4907 27.6922 36.4742C27.6773 36.4577 27.6588 36.4449 27.6382 36.4368L27.4671 36.3704C27.4507 36.3581 27.4307 36.3514 27.4101 36.3514C27.3895 36.3514 27.3695 36.3581 27.3531 36.3704L27.182 36.4843C27.1618 36.5005 27.1367 36.5093 27.1108 36.5093C27.0848 36.5093 27.0597 36.5005 27.0395 36.4843L26.8399 36.2849C26.826 36.2656 26.8185 36.2423 26.8185 36.2185C26.8185 36.1946 26.826 36.1714 26.8399 36.152L26.9635 35.9811C26.9753 35.9628 26.9816 35.9413 26.9816 35.9194C26.9816 35.8976 26.9753 35.8761 26.9635 35.8577C26.9358 35.803 26.9135 35.7458 26.8969 35.6868C26.8872 35.6683 26.8737 35.652 26.8574 35.639C26.841 35.6259 26.8221 35.6163 26.8019 35.6109H26.5928C26.5685 35.6064 26.5466 35.5935 26.5309 35.5743C26.5153 35.5552 26.5069 35.5312 26.5073 35.5065V35.2311C26.506 35.2179 26.5074 35.2045 26.5116 35.1919C26.5158 35.1793 26.5226 35.1676 26.5316 35.1578C26.5405 35.1479 26.5514 35.1401 26.5636 35.1347C26.5758 35.1294 26.589 35.1267 26.6023 35.1267L26.8494 35.1837C26.8708 35.1813 26.8911 35.1729 26.9079 35.1594C26.9247 35.146 26.9374 35.1281 26.9445 35.1077C26.9599 35.0469 26.9856 34.9891 27.0205 34.9368C27.0297 34.9176 27.0346 34.8965 27.0346 34.8751C27.0346 34.8538 27.0297 34.8327 27.0205 34.8134L26.8969 34.6425C26.8815 34.6238 26.873 34.6003 26.873 34.5761C26.873 34.5518 26.8815 34.5283 26.8969 34.5096L27.0015 34.4052L27.0965 34.3103C27.1152 34.2948 27.1387 34.2864 27.163 34.2864C27.1873 34.2864 27.2108 34.2948 27.2295 34.3103L27.4006 34.4337C27.419 34.4455 27.4405 34.4518 27.4624 34.4518C27.4843 34.4518 27.5057 34.4455 27.5241 34.4337L27.7047 34.3672C27.7257 34.3613 27.7443 34.349 27.758 34.3319C27.7716 34.3149 27.7796 34.2941 27.7807 34.2723V34.0729C27.7868 34.0494 27.8002 34.0284 27.819 34.0131C27.8378 33.9977 27.861 33.9887 27.8853 33.9875H28.1703C28.1946 33.9887 28.2178 33.9977 28.2366 34.0131C28.2554 34.0284 28.2688 34.0494 28.2749 34.0729V34.2818C28.2773 34.3032 28.2857 34.3234 28.2992 34.3402C28.3126 34.357 28.3305 34.3697 28.3509 34.3767L28.522 34.4432C28.5404 34.455 28.5618 34.4613 28.5837 34.4613C28.6056 34.4613 28.6271 34.455 28.6455 34.4432L28.807 34.3198C28.8273 34.3036 28.8524 34.2948 28.8783 34.2948C28.9042 34.2948 28.9294 34.3036 28.9496 34.3198L29.0446 34.4242L29.1492 34.5191C29.1631 34.5385 29.1706 34.5617 29.1706 34.5856C29.1706 34.6094 29.1631 34.6327 29.1492 34.652L29.0256 34.8229C29.0137 34.8413 29.0074 34.8627 29.0074 34.8846C29.0074 34.9065 29.0137 34.9279 29.0256 34.9463C29.0519 35.0016 29.0741 35.0587 29.0921 35.1172C29.0969 35.138 29.1075 35.1571 29.1226 35.1722C29.1377 35.1873 29.1568 35.1979 29.1777 35.2027H29.3867C29.4103 35.2087 29.4312 35.2221 29.4466 35.2409C29.462 35.2597 29.471 35.2829 29.4723 35.3071V35.5919C29.4705 35.6175 29.4601 35.6416 29.4429 35.6606C29.4256 35.6795 29.4025 35.6921 29.3772 35.6963ZM27.7446 35.9661C27.8195 35.9961 27.8996 36.0109 27.9803 36.0096C28.0614 36.0096 28.1417 35.9937 28.2167 35.9627C28.2916 35.9316 28.3597 35.8862 28.4171 35.8289C28.4744 35.7716 28.5199 35.7036 28.551 35.6287C28.582 35.5538 28.598 35.4736 28.598 35.3925C28.593 35.2297 28.5248 35.0751 28.4077 34.9617C28.2906 34.8483 28.1339 34.7849 27.9708 34.7849C27.8086 34.7874 27.6539 34.8536 27.5401 34.969C27.4263 35.0845 27.3626 35.24 27.3626 35.402C27.3626 35.4826 27.3786 35.5624 27.4098 35.6368C27.4409 35.7111 27.4866 35.7785 27.5441 35.8351C27.6016 35.8916 27.6697 35.9362 27.7446 35.9661ZM30.9729 29.0697C31.3193 29.0697 31.6001 28.7892 31.6001 28.4431C31.6001 28.0971 31.3193 27.8166 30.9729 27.8166C30.6265 27.8166 30.3457 28.0971 30.3457 28.4431C30.3457 28.7892 30.6265 29.0697 30.9729 29.0697ZM33.1349 29.9764C33.1936 29.9531 33.2564 29.9418 33.3196 29.943C33.4456 29.943 33.5665 29.993 33.6556 30.082C33.7447 30.1711 33.7948 30.2918 33.7948 30.4177C33.796 30.4808 33.7847 30.5436 33.7614 30.6023C33.738 30.661 33.7032 30.7144 33.659 30.7595C33.6147 30.8046 33.5619 30.8404 33.5037 30.8649C33.4454 30.8893 33.3828 30.9019 33.3196 30.9019C33.1911 30.9019 33.0678 30.8509 32.9769 30.7601C32.886 30.6693 32.835 30.5461 32.835 30.4177C32.8349 30.3546 32.8475 30.292 32.872 30.2338C32.8965 30.1756 32.9323 30.1228 32.9775 30.0786C33.0226 30.0344 33.0761 29.9997 33.1349 29.9764ZM35.6853 28.1488C35.519 28.1488 35.3594 28.2148 35.2418 28.3323C35.1242 28.4498 35.0581 28.6092 35.0581 28.7754V29.4304H36.303V28.8133C36.3082 28.7287 36.2961 28.6439 36.2674 28.5641C36.2388 28.4843 36.1943 28.4111 36.1366 28.349C36.0788 28.2868 36.009 28.237 35.9315 28.2026C35.8539 28.1682 35.7702 28.1499 35.6853 28.1488ZM33.4244 42.1804C33.4909 42.1909 33.5515 42.2246 33.5955 42.2754C33.6366 42.3298 33.6569 42.3972 33.6525 42.4652C33.6405 42.5311 33.6071 42.5912 33.5575 42.6361L32.3981 43.7659C32.3367 43.7884 32.2694 43.7884 32.208 43.7659C32.1382 43.7576 32.0739 43.7238 32.0275 43.6709C31.9889 43.6156 31.972 43.548 31.98 43.4811C31.9883 43.4113 32.0221 43.347 32.075 43.3007L33.2249 42.1804C33.2894 42.1572 33.3599 42.1572 33.4244 42.1804Z" fill="#B3D353"/>
<path fill-rule="evenodd" clip-rule="evenodd" d="M86.2759 37.1013H88.5846C90.0572 37.1013 90.9787 37.8608 90.9787 39.095C90.9787 40.3292 90.0572 41.0887 88.5846 41.0887H87.321V42.7216H86.2759V37.1013ZM87.321 40.2057H88.5371C89.4491 40.2057 89.9242 39.788 89.9242 39.0855C89.9242 38.383 89.4871 37.9747 88.5371 37.9747H87.321V40.2057ZM96.6413 37.1014C98.0854 37.1014 99.0355 37.8514 99.0355 39.095C99.0517 39.4773 98.9464 39.8549 98.7348 40.1738C98.5232 40.4927 98.2161 40.7365 97.8574 40.8704L99.1305 42.7216H98.0094L96.9073 41.0697H95.3777V42.7216H94.3326V37.1014H96.6413ZM95.3777 40.2153H96.5938C97.5059 40.2153 97.9809 39.7881 97.9809 39.0855C97.9809 38.383 97.5439 37.9748 96.5938 37.9748H95.3777V40.2153ZM103.805 40.2912H106.513V39.4273H103.805V37.9748H106.855V37.1014H102.76V42.7121H106.969V41.8387H103.805V40.2912ZM111.785 42.7121H110.74V37.1014H114.835V37.9748H111.785V39.6836H114.493V40.5571H111.785V42.7121ZM119.177 40.2912H121.885V39.4273H119.177V37.9748H122.227V37.1014H118.132V42.7121H122.341V41.8387H119.177V40.2912ZM126.113 37.1014H127.158V42.7121H126.113V37.1014ZM130.521 37.9843H132.383V42.7121H133.419V37.9843H135.281V37.1014H130.521V37.9843ZM141.095 41.8767C141.998 41.8767 142.511 41.383 142.511 40.2248V37.1014H143.537V40.2628C143.558 40.5979 143.51 40.9337 143.396 41.2496C143.282 41.5654 143.104 41.8546 142.874 42.0993C142.644 42.344 142.366 42.539 142.058 42.6723C141.749 42.8056 141.417 42.8743 141.081 42.8743C140.745 42.8743 140.412 42.8056 140.104 42.6723C139.796 42.539 139.518 42.344 139.288 42.0993C139.058 41.8546 138.88 41.5654 138.766 41.2496C138.652 40.9337 138.604 40.5979 138.625 40.2628V37.1014H139.661V40.2248C139.661 41.383 140.193 41.8767 141.095 41.8767ZM152.012 39.095C152.012 37.8514 151.062 37.1014 149.618 37.1014H147.309V42.7216H148.354V41.0697H149.836L151.062 42.7216H152.183L150.891 40.8798C151.24 40.7361 151.536 40.4869 151.737 40.1669C151.938 39.8469 152.034 39.4722 152.012 39.095ZM149.57 40.2153H148.354V37.9748H149.57C150.52 37.9748 150.957 38.383 150.957 39.0855C150.957 39.7881 150.511 40.2153 149.599 40.2153H149.57ZM157.503 37.1014H158.529L161.056 42.7216H159.964L159.403 41.421H156.6L156.049 42.7216H154.976L157.503 37.1014ZM158.006 38.1457L156.952 40.595H159.061L158.006 38.1457Z" fill="#B3D353"/>
<path fill-rule="evenodd" clip-rule="evenodd" d="M81.3366 18.3321C82.4303 17.6019 83.7161 17.2122 85.0315 17.2122C86.7953 17.2122 88.4869 17.9123 89.7341 19.1586C90.9813 20.4049 91.682 22.0952 91.682 23.8577C91.682 25.1721 91.2919 26.457 90.5611 27.5498C89.8304 28.6427 88.7917 29.4944 87.5765 29.9974C86.3613 30.5004 85.0241 30.632 83.734 30.3756C82.4439 30.1192 81.2589 29.4863 80.3288 28.5569C79.3987 27.6275 78.7653 26.4433 78.5087 25.1542C78.2521 23.8651 78.3838 22.5289 78.8872 21.3146C79.3905 20.1003 80.243 19.0624 81.3366 18.3321ZM83.0601 26.7877C83.6441 27.1757 84.3302 27.3818 85.0315 27.3799C85.9697 27.3774 86.8686 27.0032 87.5311 26.3394C88.1937 25.6755 88.5657 24.7763 88.5657 23.8387C88.5657 23.138 88.3576 22.4529 87.9678 21.8704C87.578 21.2879 87.024 20.834 86.3759 20.5663C85.7278 20.2985 85.0148 20.2289 84.3271 20.3664C83.6394 20.5038 83.008 20.842 82.5128 21.3382C82.0175 21.8343 81.6808 22.4662 81.5451 23.1537C81.4095 23.8413 81.481 24.5536 81.7507 25.2005C82.0203 25.8474 82.476 26.3997 83.0601 26.7877ZM133.01 17.2881H132.155C132.128 17.287 132.101 17.2924 132.076 17.304C132.051 17.3156 132.029 17.3329 132.013 17.3546L127.538 22.9558C127.522 22.9787 127.5 22.9974 127.476 23.0106C127.451 23.0238 127.423 23.0311 127.395 23.0318C127.366 23.0326 127.336 23.0261 127.31 23.0128C127.283 22.9996 127.26 22.98 127.243 22.9558L122.75 17.3546C122.733 17.3323 122.712 17.3145 122.687 17.3028C122.662 17.2912 122.634 17.2861 122.607 17.2881H121.752C121.704 17.2881 121.658 17.3071 121.624 17.341C121.59 17.3748 121.571 17.4207 121.571 17.4685V30.285C121.57 30.3094 121.574 30.3339 121.582 30.3569C121.591 30.3799 121.604 30.4009 121.621 30.4187C121.638 30.4365 121.658 30.4506 121.681 30.4603C121.703 30.4699 121.727 30.4749 121.752 30.4748H124.46C124.51 30.4748 124.558 30.4548 124.594 30.4192C124.63 30.3836 124.65 30.3353 124.65 30.285V24.5223C124.648 24.4853 124.658 24.4487 124.678 24.4178C124.699 24.387 124.729 24.3637 124.764 24.3514C124.799 24.3374 124.838 24.3344 124.876 24.3429C124.913 24.3514 124.947 24.3709 124.973 24.3989L127.12 26.6489C127.155 26.6847 127.203 26.7051 127.253 26.7058H127.452C127.477 26.7066 127.502 26.702 127.525 26.6921C127.548 26.6823 127.569 26.6675 127.585 26.6489L129.742 24.3989C129.767 24.3717 129.799 24.3526 129.834 24.3441C129.87 24.3356 129.907 24.3382 129.942 24.3514C129.977 24.3634 130.009 24.3863 130.031 24.417C130.053 24.4476 130.065 24.4845 130.065 24.5223V30.285C130.065 30.3353 130.085 30.3836 130.121 30.4192C130.156 30.4548 130.205 30.4748 130.255 30.4748H133.01C133.061 30.4748 133.109 30.4548 133.145 30.4192C133.18 30.3836 133.2 30.3353 133.2 30.285V17.4685C133.198 17.4198 133.177 17.3739 133.141 17.3403C133.106 17.3068 133.059 17.2881 133.01 17.2881ZM180.513 17.288H179.658C179.631 17.2868 179.604 17.2923 179.579 17.3039C179.554 17.3154 179.533 17.3328 179.516 17.3544L175.041 22.9557C175.024 22.9798 175.001 22.9994 174.974 23.0127C174.948 23.0259 174.919 23.0324 174.889 23.0316C174.861 23.0309 174.833 23.0237 174.809 23.0105C174.784 22.9973 174.763 22.9785 174.746 22.9557L170.253 17.3544C170.236 17.3328 170.214 17.3154 170.189 17.3039C170.165 17.2923 170.137 17.2868 170.11 17.288H169.255C169.206 17.2879 169.159 17.3066 169.124 17.3402C169.089 17.3738 169.067 17.4197 169.065 17.4683V30.2848C169.065 30.3352 169.085 30.3835 169.121 30.4191C169.156 30.4547 169.205 30.4747 169.255 30.4747H171.991C172.016 30.4747 172.04 30.4698 172.063 30.4601C172.085 30.4504 172.105 30.4363 172.122 30.4185C172.139 30.4008 172.152 30.3797 172.161 30.3568C172.169 30.3338 172.173 30.3093 172.172 30.2848V24.5221C172.172 24.4843 172.184 24.4475 172.206 24.4168C172.228 24.3861 172.259 24.3632 172.295 24.3513C172.329 24.338 172.367 24.3355 172.402 24.3439C172.438 24.3524 172.47 24.3715 172.495 24.3987L174.651 26.6487C174.687 26.6845 174.734 26.705 174.784 26.7057H174.984C175.034 26.705 175.082 26.6845 175.117 26.6487L177.274 24.3987C177.298 24.3715 177.33 24.3524 177.366 24.3439C177.402 24.3355 177.439 24.338 177.473 24.3513C177.509 24.3632 177.54 24.3861 177.563 24.4168C177.585 24.4475 177.597 24.4843 177.597 24.5221V30.2848C177.595 30.3093 177.599 30.3338 177.608 30.3568C177.616 30.3797 177.629 30.4008 177.646 30.4185C177.663 30.4363 177.683 30.4504 177.706 30.4601C177.728 30.4698 177.753 30.4747 177.777 30.4747H180.513C180.564 30.4747 180.612 30.4547 180.648 30.4191C180.683 30.3835 180.703 30.3352 180.703 30.2848V17.4683C180.701 17.4197 180.68 17.3738 180.645 17.3402C180.609 17.3066 180.562 17.2879 180.513 17.288ZM164.201 17.288H166.899C166.924 17.2867 166.949 17.2903 166.973 17.2987C166.996 17.3071 167.018 17.32 167.036 17.3368C167.055 17.3535 167.07 17.3738 167.081 17.3964C167.091 17.4189 167.098 17.4434 167.099 17.4683V26.4019C167.099 29.0696 164.8 30.4747 162.291 30.4747C159.783 30.4747 157.456 29.0601 157.456 26.4019V17.4683C157.458 17.4212 157.478 17.3767 157.511 17.3433C157.544 17.31 157.589 17.2903 157.636 17.288H160.372C160.421 17.2879 160.468 17.3066 160.503 17.3402C160.539 17.3737 160.56 17.4196 160.562 17.4683V26.3354C160.562 27.3228 161.465 27.7405 162.301 27.7405C163.137 27.7405 164.021 27.2848 164.021 26.3354V17.4683C164.021 17.4205 164.04 17.3746 164.073 17.3408C164.107 17.307 164.153 17.288 164.201 17.288ZM155.394 17.2881H146.938C146.889 17.288 146.842 17.3067 146.807 17.3403C146.772 17.3739 146.751 17.4198 146.748 17.4684V19.8134C146.748 19.8637 146.768 19.912 146.804 19.9476C146.839 19.9833 146.888 20.0033 146.938 20.0033H149.484C149.533 20.0032 149.58 20.0219 149.615 20.0555C149.651 20.0891 149.672 20.1349 149.674 20.1836V30.2849C149.673 30.3094 149.677 30.3339 149.685 30.3569C149.694 30.3798 149.707 30.4009 149.724 30.4186C149.741 30.4364 149.761 30.4505 149.784 30.4602C149.806 30.4699 149.83 30.4748 149.855 30.4748H152.487C152.537 30.4748 152.585 30.4548 152.621 30.4192C152.657 30.3836 152.677 30.3353 152.677 30.2849V20.1836C152.679 20.1349 152.7 20.0891 152.736 20.0555C152.771 20.0219 152.818 20.0032 152.867 20.0033H155.394C155.444 20.0033 155.493 19.9833 155.528 19.9476C155.564 19.912 155.584 19.8637 155.584 19.8134V17.4684C155.581 17.4198 155.56 17.3739 155.525 17.3403C155.49 17.3067 155.443 17.288 155.394 17.2881ZM141.998 17.2881H144.696C144.745 17.288 144.792 17.3067 144.827 17.3403C144.862 17.3739 144.883 17.4198 144.886 17.4684V26.402C144.886 29.0697 142.587 30.4748 140.079 30.4748C137.57 30.4748 135.243 29.0697 135.243 26.402V17.4684C135.245 17.4214 135.265 17.3768 135.298 17.3435C135.331 17.3101 135.376 17.2904 135.423 17.2881H138.159C138.208 17.288 138.255 17.3067 138.29 17.3403C138.326 17.3739 138.347 17.4198 138.349 17.4684V26.3355C138.349 27.3229 139.271 27.7406 140.098 27.7406C140.924 27.7406 141.808 27.2849 141.808 26.3355V17.4684C141.81 17.4198 141.831 17.3739 141.867 17.3403C141.902 17.3067 141.949 17.288 141.998 17.2881ZM76.6802 17.2881H73.9345C73.8857 17.288 73.8388 17.3067 73.8034 17.3403C73.768 17.3739 73.747 17.4198 73.7445 17.4685V23.1647C73.7446 23.2025 73.7339 23.2395 73.7137 23.2714C73.6935 23.3033 73.6647 23.3289 73.6305 23.3451C73.5949 23.3591 73.556 23.3621 73.5187 23.3536C73.4814 23.3451 73.4475 23.3256 73.4215 23.2976L67.6165 17.383C67.5999 17.3644 67.5794 17.3497 67.5564 17.3398C67.5334 17.33 67.5085 17.3253 67.4835 17.3261H66.733C66.6842 17.326 66.6372 17.3447 66.6019 17.3783C66.5665 17.4119 66.5454 17.4578 66.543 17.5065V30.2565C66.543 30.3068 66.563 30.3551 66.5986 30.3907C66.6343 30.4263 66.6826 30.4463 66.733 30.4463H69.4787C69.5291 30.4463 69.5774 30.4263 69.6131 30.3907C69.6487 30.3551 69.6687 30.3068 69.6687 30.2565V24.4368C69.6666 24.3999 69.6766 24.3632 69.6972 24.3324C69.7177 24.3016 69.7477 24.2782 69.7827 24.266C69.8183 24.2519 69.8573 24.249 69.8946 24.2574C69.9319 24.2659 69.9657 24.2854 69.9917 24.3134L75.8917 30.3799C75.9083 30.3985 75.9289 30.4133 75.9519 30.4231C75.9748 30.433 75.9997 30.4376 76.0247 30.4368H76.6802C76.7306 30.4368 76.779 30.4168 76.8146 30.3812C76.8502 30.3456 76.8703 30.2973 76.8703 30.247V17.4685C76.8678 17.4198 76.8467 17.3739 76.8114 17.3403C76.776 17.3067 76.729 17.288 76.6802 17.2881ZM104.594 17.3734C104.576 17.3468 104.552 17.3249 104.524 17.31C104.496 17.2951 104.464 17.2875 104.432 17.288H101.458C101.423 17.2865 101.387 17.2957 101.357 17.3143C101.327 17.3329 101.302 17.3601 101.287 17.3924L98.0665 24.3038C98.0506 24.3354 98.0261 24.3619 97.9959 24.3804C97.9657 24.3988 97.9309 24.4085 97.8955 24.4082C97.8599 24.4096 97.8246 24.4005 97.7942 24.3819C97.7637 24.3633 97.7395 24.3361 97.7245 24.3038L94.5513 17.3924C94.5353 17.3608 94.5109 17.3343 94.4807 17.3158C94.4504 17.2974 94.4157 17.2877 94.3802 17.288H91.3495C91.3176 17.2875 91.286 17.2951 91.2578 17.31C91.2296 17.3249 91.2056 17.3468 91.188 17.3734C91.1738 17.4014 91.1664 17.4323 91.1664 17.4636C91.1664 17.4949 91.1738 17.5258 91.188 17.5538L97.145 30.3797C97.16 30.4121 97.1842 30.4393 97.2146 30.4579C97.2451 30.4764 97.2803 30.4856 97.316 30.4842H98.5036C98.5392 30.4856 98.5745 30.4764 98.6049 30.4579C98.6353 30.4393 98.6596 30.4121 98.6746 30.3797L104.603 17.5633C104.617 17.5333 104.624 17.5003 104.622 17.4671C104.621 17.434 104.611 17.4018 104.594 17.3734ZM106.959 17.288H108.213C108.248 17.2892 108.282 17.3006 108.311 17.3209C108.34 17.3411 108.362 17.3693 108.375 17.4019L114.303 30.2183C114.319 30.2458 114.327 30.2769 114.327 30.3085C114.327 30.3402 114.319 30.3713 114.303 30.3987C114.286 30.4254 114.262 30.4472 114.233 30.4621C114.205 30.4771 114.174 30.4846 114.142 30.4842H111.168C111.132 30.4856 111.097 30.4764 111.067 30.4579C111.036 30.4393 111.012 30.4121 110.997 30.3797L107.7 23.3829C107.686 23.3495 107.662 23.321 107.631 23.3008C107.601 23.2806 107.566 23.2696 107.529 23.269C107.493 23.2707 107.458 23.2822 107.428 23.3022C107.398 23.3223 107.374 23.3502 107.358 23.3829L104.175 30.3702C104.16 30.4026 104.136 30.4298 104.106 30.4484C104.075 30.4669 104.04 30.4761 104.004 30.4747H100.983C100.951 30.4751 100.92 30.4676 100.891 30.4526C100.863 30.4377 100.839 30.4159 100.822 30.3892C100.806 30.3618 100.797 30.3307 100.797 30.299C100.797 30.2674 100.806 30.2363 100.822 30.2089L106.788 17.3924C106.803 17.3601 106.827 17.3329 106.858 17.3143C106.888 17.2957 106.923 17.2865 106.959 17.288Z" fill="#B3D353"/>
<rect x="208" y="5" width="2" height="50" fill="#EDF2F7"/>
<path d="M230.74 19.596C232.96 19.596 234.292 18.312 234.292 15.876V11.1H233.128V15.828C233.128 17.688 232.264 18.528 230.752 18.528C229.24 18.528 228.388 17.688 228.388 15.828V11.1H227.188V15.876C227.188 18.312 228.532 19.596 230.74 19.596ZM244.54 13.08C243.46 13.08 242.572 13.536 242.092 14.256C241.672 13.464 240.856 13.08 239.884 13.08C238.924 13.08 238.144 13.44 237.688 14.088V13.14H236.584V19.5H237.736V16.224C237.736 14.844 238.492 14.112 239.644 14.112C240.688 14.112 241.288 14.724 241.288 15.972V19.5H242.44V16.224C242.44 14.844 243.196 14.112 244.348 14.112C245.392 14.112 245.992 14.724 245.992 15.972V19.5H247.144V15.84C247.144 13.968 246.088 13.08 244.54 13.08ZM251.58 13.08C250.56 13.08 249.612 13.368 248.952 13.896L249.432 14.76C249.924 14.34 250.692 14.076 251.448 14.076C252.588 14.076 253.152 14.64 253.152 15.612V15.84H251.328C249.432 15.84 248.772 16.68 248.772 17.7C248.772 18.804 249.684 19.572 251.124 19.572C252.12 19.572 252.828 19.236 253.212 18.66V19.5H254.304V15.66C254.304 13.92 253.32 13.08 251.58 13.08ZM251.316 18.684C250.44 18.684 249.912 18.288 249.912 17.652C249.912 17.112 250.236 16.668 251.376 16.668H253.152V17.556C252.864 18.288 252.18 18.684 251.316 18.684ZM262.49 19.584C263.738 19.584 264.734 19.044 265.226 18.084L264.074 17.412C263.69 18.024 263.114 18.3 262.478 18.3C261.374 18.3 260.534 17.544 260.534 16.296C260.534 15.06 261.374 14.292 262.478 14.292C263.114 14.292 263.69 14.568 264.074 15.18L265.226 14.508C264.734 13.536 263.738 13.02 262.49 13.02C260.462 13.02 259.022 14.376 259.022 16.296C259.022 18.216 260.462 19.584 262.49 19.584ZM267.279 12.036C267.843 12.036 268.239 11.628 268.239 11.1C268.239 10.608 267.831 10.236 267.279 10.236C266.727 10.236 266.319 10.632 266.319 11.136C266.319 11.64 266.727 12.036 267.279 12.036ZM266.523 19.5H268.023V13.092H266.523V19.5ZM274.768 10.596V13.884C274.264 13.296 273.532 13.02 272.704 13.02C270.844 13.02 269.464 14.304 269.464 16.296C269.464 18.288 270.844 19.584 272.704 19.584C273.58 19.584 274.324 19.284 274.828 18.672V19.5H276.268V10.596H274.768ZM272.884 18.3C271.804 18.3 270.976 17.52 270.976 16.296C270.976 15.072 271.804 14.292 272.884 14.292C273.964 14.292 274.792 15.072 274.792 16.296C274.792 17.52 273.964 18.3 272.884 18.3ZM280.678 13.02C279.646 13.02 278.65 13.284 277.966 13.812L278.554 14.904C279.034 14.508 279.778 14.268 280.498 14.268C281.566 14.268 282.094 14.784 282.094 15.66V15.756H280.438C278.494 15.756 277.774 16.596 277.774 17.664C277.774 18.78 278.698 19.584 280.162 19.584C281.122 19.584 281.818 19.272 282.178 18.72V19.5H283.594V15.744C283.594 13.896 282.526 13.02 280.678 13.02ZM280.474 18.492C279.706 18.492 279.25 18.144 279.25 17.604C279.25 17.136 279.526 16.752 280.546 16.752H282.094V17.496C281.842 18.156 281.206 18.492 280.474 18.492ZM290.354 10.596V13.884C289.85 13.296 289.118 13.02 288.29 13.02C286.43 13.02 285.05 14.304 285.05 16.296C285.05 18.288 286.43 19.584 288.29 19.584C289.166 19.584 289.91 19.284 290.414 18.672V19.5H291.854V10.596H290.354ZM288.47 18.3C287.39 18.3 286.562 17.52 286.562 16.296C286.562 15.072 287.39 14.292 288.47 14.292C289.55 14.292 290.378 15.072 290.378 16.296C290.378 17.52 289.55 18.3 288.47 18.3ZM299.84 16.332C299.84 14.328 298.472 13.02 296.6 13.02C294.692 13.02 293.288 14.388 293.288 16.296C293.288 18.204 294.68 19.584 296.828 19.584C297.932 19.584 298.832 19.224 299.408 18.54L298.604 17.616C298.148 18.084 297.584 18.312 296.864 18.312C295.748 18.312 294.968 17.712 294.788 16.776H299.816C299.828 16.632 299.84 16.452 299.84 16.332ZM296.6 14.22C297.584 14.22 298.292 14.856 298.412 15.78H294.776C294.92 14.844 295.628 14.22 296.6 14.22ZM230.536 28.02C229.66 28.02 228.916 28.32 228.412 28.932V28.092H226.984V36.828H228.484V33.72C229 34.308 229.72 34.584 230.536 34.584C232.408 34.584 233.788 33.288 233.788 31.296C233.788 29.316 232.408 28.02 230.536 28.02ZM230.368 33.3C229.288 33.3 228.46 32.52 228.46 31.296C228.46 30.072 229.288 29.292 230.368 29.292C231.448 29.292 232.264 30.072 232.264 31.296C232.264 32.52 231.448 33.3 230.368 33.3ZM235.211 34.5H236.711V25.596H235.211V34.5ZM241.127 28.02C240.095 28.02 239.099 28.284 238.415 28.812L239.003 29.904C239.483 29.508 240.227 29.268 240.947 29.268C242.015 29.268 242.543 29.784 242.543 30.66V30.756H240.887C238.943 30.756 238.223 31.596 238.223 32.664C238.223 33.78 239.147 34.584 240.611 34.584C241.571 34.584 242.267 34.272 242.627 33.72V34.5H244.043V30.744C244.043 28.896 242.975 28.02 241.127 28.02ZM240.923 33.492C240.155 33.492 239.699 33.144 239.699 32.604C239.699 32.136 239.975 31.752 240.995 31.752H242.543V32.496C242.291 33.156 241.655 33.492 240.923 33.492ZM249.604 28.02C248.668 28.02 247.888 28.332 247.396 28.92V28.092H245.968V34.5H247.468V31.26C247.468 29.976 248.188 29.328 249.256 29.328C250.216 29.328 250.78 29.88 250.78 31.02V34.5H252.28V30.828C252.28 28.896 251.14 28.02 249.604 28.02ZM260.266 31.332C260.266 29.328 258.898 28.02 257.026 28.02C255.118 28.02 253.714 29.388 253.714 31.296C253.714 33.204 255.106 34.584 257.254 34.584C258.358 34.584 259.258 34.224 259.834 33.54L259.03 32.616C258.574 33.084 258.01 33.312 257.29 33.312C256.174 33.312 255.394 32.712 255.214 31.776H260.242C260.254 31.632 260.266 31.452 260.266 31.332ZM257.026 29.22C258.01 29.22 258.718 29.856 258.838 30.78H255.202C255.346 29.844 256.054 29.22 257.026 29.22ZM262.523 27.036C263.087 27.036 263.483 26.628 263.483 26.1C263.483 25.608 263.075 25.236 262.523 25.236C261.971 25.236 261.563 25.632 261.563 26.136C261.563 26.64 261.971 27.036 262.523 27.036ZM261.047 36.912C262.475 36.912 263.279 36.024 263.279 34.62V28.092H261.779V34.656C261.779 35.34 261.467 35.676 260.915 35.676C260.579 35.676 260.267 35.592 260.039 35.424L259.607 36.54C259.955 36.804 260.495 36.912 261.047 36.912ZM267.694 28.02C266.662 28.02 265.666 28.284 264.982 28.812L265.57 29.904C266.05 29.508 266.794 29.268 267.514 29.268C268.582 29.268 269.11 29.784 269.11 30.66V30.756H267.454C265.51 30.756 264.79 31.596 264.79 32.664C264.79 33.78 265.714 34.584 267.178 34.584C268.138 34.584 268.834 34.272 269.194 33.72V34.5H270.61V30.744C270.61 28.896 269.542 28.02 267.694 28.02ZM267.49 33.492C266.722 33.492 266.266 33.144 266.266 32.604C266.266 32.136 266.542 31.752 267.562 31.752H269.11V32.496C268.858 33.156 268.222 33.492 267.49 33.492ZM277.369 25.596V28.884C276.865 28.296 276.133 28.02 275.305 28.02C273.445 28.02 272.065 29.304 272.065 31.296C272.065 33.288 273.445 34.584 275.305 34.584C276.181 34.584 276.925 34.284 277.429 33.672V34.5H278.869V25.596H277.369ZM275.485 33.3C274.405 33.3 273.577 32.52 273.577 31.296C273.577 30.072 274.405 29.292 275.485 29.292C276.565 29.292 277.393 30.072 277.393 31.296C277.393 32.52 276.565 33.3 275.485 33.3ZM283.28 28.02C282.248 28.02 281.252 28.284 280.568 28.812L281.156 29.904C281.636 29.508 282.38 29.268 283.1 29.268C284.168 29.268 284.696 29.784 284.696 30.66V30.756H283.04C281.096 30.756 280.376 31.596 280.376 32.664C280.376 33.78 281.3 34.584 282.764 34.584C283.724 34.584 284.42 34.272 284.78 33.72V34.5H286.196V30.744C286.196 28.896 285.128 28.02 283.28 28.02ZM283.076 33.492C282.308 33.492 281.852 33.144 281.852 32.604C281.852 32.136 282.128 31.752 283.148 31.752H284.696V32.496C284.444 33.156 283.808 33.492 283.076 33.492ZM294.823 28.08C293.887 28.08 293.071 28.44 292.555 29.148V28.14H291.451V36.828H292.603V33.54C293.131 34.224 293.923 34.572 294.823 34.572C296.683 34.572 298.039 33.276 298.039 31.32C298.039 29.376 296.683 28.08 294.823 28.08ZM294.727 33.564C293.515 33.564 292.591 32.676 292.591 31.32C292.591 29.976 293.515 29.088 294.727 29.088C295.951 29.088 296.875 29.976 296.875 31.32C296.875 32.676 295.951 33.564 294.727 33.564ZM301.888 28.08C300.868 28.08 299.92 28.368 299.26 28.896L299.74 29.76C300.232 29.34 301 29.076 301.756 29.076C302.896 29.076 303.46 29.64 303.46 30.612V30.84H301.636C299.74 30.84 299.08 31.68 299.08 32.7C299.08 33.804 299.992 34.572 301.432 34.572C302.428 34.572 303.136 34.236 303.52 33.66V34.5H304.612V30.66C304.612 28.92 303.628 28.08 301.888 28.08ZM301.624 33.684C300.748 33.684 300.22 33.288 300.22 32.652C300.22 32.112 300.544 31.668 301.684 31.668H303.46V32.556C303.172 33.288 302.488 33.684 301.624 33.684ZM307.848 29.208V28.14H306.744V34.5H307.896V31.332C307.896 29.94 308.664 29.184 309.9 29.184C309.984 29.184 310.068 29.184 310.164 29.196V28.08C309.048 28.08 308.256 28.464 307.848 29.208ZM313.888 28.08C312.868 28.08 311.92 28.368 311.26 28.896L311.74 29.76C312.232 29.34 313 29.076 313.756 29.076C314.896 29.076 315.46 29.64 315.46 30.612V30.84H313.636C311.74 30.84 311.08 31.68 311.08 32.7C311.08 33.804 311.992 34.572 313.432 34.572C314.428 34.572 315.136 34.236 315.52 33.66V34.5H316.612V30.66C316.612 28.92 315.628 28.08 313.888 28.08ZM313.624 33.684C312.748 33.684 312.22 33.288 312.22 32.652C312.22 32.112 312.544 31.668 313.684 31.668H315.46V32.556C315.172 33.288 314.488 33.684 313.624 33.684ZM229.816 49.572C231.724 49.572 233.116 48.216 233.116 46.32C233.116 44.424 231.724 43.08 229.816 43.08C227.908 43.08 226.504 44.424 226.504 46.32C226.504 48.216 227.908 49.572 229.816 49.572ZM229.816 48.564C228.592 48.564 227.668 47.676 227.668 46.32C227.668 44.964 228.592 44.088 229.816 44.088C231.04 44.088 231.952 44.964 231.952 46.32C231.952 47.676 231.04 48.564 229.816 48.564ZM240.26 41.472C240.596 41.472 240.908 41.592 241.148 41.772L241.496 40.896C241.172 40.644 240.692 40.524 240.2 40.524C238.844 40.524 238.1 41.34 238.1 42.576V43.14H237.02V44.088H238.1V49.5H239.252V44.088H241.076V43.14H239.228V42.588C239.228 41.856 239.576 41.472 240.26 41.472ZM246.938 43.14V46.428C246.938 47.796 246.17 48.54 244.97 48.54C243.878 48.54 243.254 47.916 243.254 46.668V43.14H242.102V46.8C242.102 48.672 243.194 49.572 244.838 49.572C245.738 49.572 246.53 49.2 246.998 48.54V49.5H248.09V43.14H246.938ZM253.499 48.3C253.259 48.492 252.935 48.6 252.599 48.6C251.963 48.6 251.603 48.216 251.603 47.532V44.088H253.427V43.14H251.603V41.748H250.451V43.14H249.371V44.088H250.451V47.58C250.451 48.864 251.183 49.572 252.467 49.572C252.983 49.572 253.511 49.428 253.859 49.128L253.499 48.3ZM260.028 43.14V46.428C260.028 47.796 259.26 48.54 258.06 48.54C256.968 48.54 256.344 47.916 256.344 46.668V43.14H255.192V46.8C255.192 48.672 256.284 49.572 257.928 49.572C258.828 49.572 259.62 49.2 260.088 48.54V49.5H261.18V43.14H260.028ZM264.477 44.208V43.14H263.373V49.5H264.525V46.332C264.525 44.94 265.293 44.184 266.529 44.184C266.613 44.184 266.697 44.184 266.793 44.196V43.08C265.677 43.08 264.885 43.464 264.477 44.208ZM270.879 49.572C272.787 49.572 274.179 48.216 274.179 46.32C274.179 44.424 272.787 43.08 270.879 43.08C268.971 43.08 267.567 44.424 267.567 46.32C267.567 48.216 268.971 49.572 270.879 49.572ZM270.879 48.564C269.655 48.564 268.731 47.676 268.731 46.32C268.731 44.964 269.655 44.088 270.879 44.088C272.103 44.088 273.015 44.964 273.015 46.32C273.015 47.676 272.103 48.564 270.879 48.564ZM275.832 46.848H276.744L276.972 41.1H275.616L275.832 46.848ZM276.3 49.572C276.744 49.572 277.068 49.224 277.068 48.804C277.068 48.372 276.744 48.036 276.3 48.036C275.844 48.036 275.508 48.372 275.508 48.804C275.508 49.224 275.844 49.572 276.3 49.572Z" fill="#00684C"/>
</svg>
